# xmcd
#
# Track frame offsets:
#	150
#	11857
#	19379
#	30737
#	45059
#	59285
#	60784
#	72640
#	85586
#	108393
#	128384
#
# Disc length: 2003 seconds
#
# Revision: 2
# Processed by: cddbd v1.5.2PL0 Copyright (c) Steve Scherf et al.
# Submitted via: audiograbber 1.83.01
#
DISCID=8107d10b
DTITLE=Michael Nesmith and The First National Band - Magnetic South
DYEAR=1970
DGENRE=Oldies
TTITLE0=Michael Nesmith and The First National Band - Calico Girlfriend
TTITLE1=Michael Nesmith and The First National Band - Nine Times Blue
TTITLE2=Michael Nesmith and The First National Band - Little Red Rider
TTITLE3=Michael Nesmith and The First National Band - The Crippled Lion
TTITLE4=Michael Nesmith and The First National Band - Joanne
TTITLE5=Michael Nesmith and The First National Band - First National Rag
TTITLE6=Michael Nesmith and The First National Band - Mama Nantucket
TTITLE7=Michael Nesmith and The First National Band - The Keys To The Car
TTITLE8=Michael Nesmith and The First National Band - Hollywood
TTITLE9=Michael Nesmith and The First National Band - One Rose
TTITLE10=Michael Nesmith and The First National Band - Beyond The Blue Horizon
EXTD=
EXTT0=
EXTT1=
EXTT2=
EXTT3=
EXTT4=
EXTT5=
EXTT6=
EXTT7=
EXTT8=
EXTT9=
EXTT10=
PLAYORDER=
